<?xml version="1.0" encoding="UTF-8"?>
<svg width="1200" height="800" viewBox="0 0 1200 800" xmlns="http://www.w3.org/2000/svg" role="img" aria-label="Office building illustration">
  <defs>
    <linearGradient id="g1" x1="0" x2="1">
      <stop offset="0" stop-color="#60A5FA"/>
      <stop offset="1" stop-color="#2563EB"/>
    </linearGradient>
    <linearGradient id="g2" x1="0" x2="0" y1="0" y2="1">
      <stop offset="0" stop-color="#F8FAFC" stop-opacity="0.9"/>
      <stop offset="1" stop-color="#E6EEF8" stop-opacity="0.9"/>
    </linearGradient>
  </defs>
  <rect width="100%" height="100%" fill="#EFF6FF"/>
  <!-- building base -->
  <rect x="220" y="120" width="760" height="560" rx="12" fill="url(#g1)" opacity="0.95"/>
  <!-- floors -->
  <g fill="url(#g2)" opacity="0.98">
    <rect x="260" y="160" width="680" height="40" rx="6"/>
    <rect x="260" y="220" width="680" height="40" rx="6"/>
    <rect x="260" y="280" width="680" height="40" rx="6"/>
    <rect x="260" y="340" width="680" height="40" rx="6"/>
    <rect x="260" y="400" width="680" height="40" rx="6"/>
    <rect x="260" y="460" width="680" height="40" rx="6"/>
    <rect x="260" y="520" width="680" height="40" rx="6"/>
    <rect x="260" y="580" width="680" height="40" rx="6"/>
  </g>
  <!-- windows -->
  <g id="windows" fill="#8FB9FF">
    <style><![CDATA[
      .window { animation: glow 3s ease-in-out infinite alternate; }
      @keyframes glow { from { fill: #8FB9FF; } to { fill: #DDEEFF; } }
    ]]></style>
    <!-- columns of windows: 8 columns x 6 rows -->
    <rect class="window" x="300" y="170" width="40" height="30" rx="3"/>
    <rect class="window" x="360" y="170" width="40" height="30" rx="3"/>
    <rect class="window" x="420" y="170" width="40" height="30" rx="3"/>
    <rect class="window" x="480" y="170" width="40" height="30" rx="3"/>
    <rect class="window" x="540" y="170" width="40" height="30" rx="3"/>
    <rect class="window" x="600" y="170" width="40" height="30" rx="3"/>
    <rect class="window" x="660" y="170" width="40" height="30" rx="3"/>
    <rect class="window" x="720" y="170" width="40" height="30" rx="3"/>

    <rect x="300" y="230" width="40" height="30" rx="3"/>
    <rect x="360" y="230" width="40" height="30" rx="3"/>
    <rect x="420" y="230" width="40" height="30" rx="3"/>
    <rect x="480" y="230" width="40" height="30" rx="3"/>
    <rect x="540" y="230" width="40" height="30" rx="3"/>
    <rect x="600" y="230" width="40" height="30" rx="3"/>
    <rect x="660" y="230" width="40" height="30" rx="3"/>
    <rect x="720" y="230" width="40" height="30" rx="3"/>

    <rect x="300" y="290" width="40" height="30" rx="3"/>
    <rect x="360" y="290" width="40" height="30" rx="3"/>
    <rect x="420" y="290" width="40" height="30" rx="3"/>
    <rect x="480" y="290" width="40" height="30" rx="3"/>
    <rect x="540" y="290" width="40" height="30" rx="3"/>
    <rect x="600" y="290" width="40" height="30" rx="3"/>
    <rect x="660" y="290" width="40" height="30" rx="3"/>
    <rect x="720" y="290" width="40" height="30" rx="3"/>

    <rect x="300" y="350" width="40" height="30" rx="3"/>
    <rect x="360" y="350" width="40" height="30" rx="3"/>
    <rect x="420" y="350" width="40" height="30" rx="3"/>
    <rect x="480" y="350" width="40" height="30" rx="3"/>
    <rect x="540" y="350" width="40" height="30" rx="3"/>
    <rect x="600" y="350" width="40" height="30" rx="3"/>
    <rect x="660" y="350" width="40" height="30" rx="3"/>
    <rect x="720" y="350" width="40" height="30" rx="3"/>

    <rect x="300" y="410" width="40" height="30" rx="3"/>
    <rect x="360" y="410" width="40" height="30" rx="3"/>
    <rect x="420" y="410" width="40" height="30" rx="3"/>
    <rect x="480" y="410" width="40" height="30" rx="3"/>
    <rect x="540" y="410" width="40" height="30" rx="3"/>
    <rect x="600" y="410" width="40" height="30" rx="3"/>
    <rect x="660" y="410" width="40" height="30" rx="3"/>
    <rect x="720" y="410" width="40" height="30" rx="3"/>

    <rect x="300" y="470" width="40" height="30" rx="3"/>
    <rect x="360" y="470" width="40" height="30" rx="3"/>
    <rect x="420" y="470" width="40" height="30" rx="3"/>
    <rect x="480" y="470" width="40" height="30" rx="3"/>
    <rect x="540" y="470" width="40" height="30" rx="3"/>
    <rect x="600" y="470" width="40" height="30" rx="3"/>
    <rect x="660" y="470" width="40" height="30" rx="3"/>
    <rect x="720" y="470" width="40" height="30" rx="3"/>
  </g>
  <!-- entrance -->
  <rect x="520" y="600" width="160" height="80" rx="8" fill="#0B63D1"/>
  <rect x="560" y="640" width="80" height="40" rx="4" fill="#7FB3FF"/>
</svg>
